<svg width="360" height="360" viewBox="0 0 360 360" fill="none" xmlns="http://www.w3.org/2000/svg">
<g clip-path="url(#clip0_152_580)">
<path d="M185.521 57.3411C188.152 59.2594 190.061 61.5069 191.543 64.16C192.921 66.6257 193.513 69.4618 193.446 72.2856C193.357 75.988 192.574 79.2766 189.831 82.5022C188.343 84.123 186.838 85.0744 184.918 86.1013C185.254 86.1623 185.589 86.2233 185.935 86.2861C199.743 88.8285 212.474 92.9198 224.009 101.233C224.265 101.417 224.521 101.6 224.784 101.789C231.18 106.441 236.295 112.01 240.823 118.467C241.142 118.908 241.461 119.348 241.79 119.802C243.93 122.903 243.93 122.903 244.054 124.904C243.438 128.209 241.362 129.7 238.864 131.773C237.563 133.077 236.66 134.357 236.577 136.24C238.531 145.339 245.233 151.186 251.786 157.229C254.342 159.606 256.76 162.088 259.025 164.744C259.753 165.563 260.522 166.312 261.314 167.069C263.704 169.436 265.71 172.107 267.724 174.792C268.027 175.193 268.027 175.193 268.335 175.602C272.124 180.661 275.213 186.061 278.233 191.606C278.763 191.345 279.292 191.083 279.822 190.821C280.117 190.675 280.412 190.529 280.716 190.379C288.613 186.293 292.876 175.812 296.866 168.352C311.135 141.684 311.135 141.684 323.355 137.29C327.104 136.186 331.302 136.464 335.172 136.441C335.452 136.44 335.733 136.438 336.022 136.436C337.502 136.428 338.981 136.422 340.461 136.418C341.983 136.413 343.505 136.398 345.027 136.382C346.206 136.371 347.384 136.367 348.563 136.366C349.396 136.363 350.228 136.352 351.061 136.34C351.821 136.342 351.821 136.342 352.597 136.344C353.041 136.342 354.066 136.21 354.524 136.208C356.044 136.465 356.415 137.259 357.256 138.223C357.514 139.279 357.514 139.279 357.256 140.325C356.407 141.147 356.407 141.147 355.233 141.927C354.812 142.215 354.391 142.504 353.957 142.801C353.52 143.093 353.083 143.386 352.632 143.687C336.275 155.1 332.811 176.893 329.518 195.331C328.84 199.2 328.3 203.078 327.806 206.974C325.34 226.428 319.211 243.764 305.975 258.439C305.691 258.754 305.407 259.069 305.114 259.393C302.587 262.044 299.668 264.257 296.727 266.426C296.451 266.63 296.175 266.833 295.89 267.044C289.513 271.677 278.825 279.036 270.667 279.036C270.497 279.4 270.497 279.4 270.323 279.771C266.927 286.227 259.893 292.448 254.288 296.916C252.466 298.394 250.703 299.937 248.936 301.48C248.557 301.81 248.557 301.81 248.17 302.148C247.926 302.362 247.681 302.576 247.429 302.797C246.735 303.391 246.025 303.958 245.31 304.525C244.016 305.666 243.447 306.384 243.233 308.086C243.235 308.392 243.237 308.697 243.24 309.011C243.237 309.313 243.235 309.615 243.233 309.925C243.319 311.051 243.319 311.051 243.76 312.362C244.226 314.073 244.354 315.578 244.369 317.339C244.383 317.629 244.397 317.919 244.411 318.217C244.428 319.815 244.234 320.583 243.281 321.88C241.911 322.877 241.241 323.06 239.562 323.171C239.139 323.2 239.139 323.2 238.708 323.23C218.696 324.453 198.537 324.091 178.496 324.089C175.926 324.09 173.355 324.093 170.784 324.098C155.271 324.129 139.771 324.068 124.263 323.613C123.95 323.604 123.636 323.594 123.313 323.585C121.249 323.525 119.184 323.46 117.12 323.393C116.614 323.377 116.108 323.361 115.586 323.345C114.177 323.296 112.768 323.235 111.359 323.171C110.865 323.155 110.371 323.139 109.862 323.123C109.379 323.099 108.896 323.076 108.398 323.052C107.967 323.035 107.537 323.017 107.093 322.999C105.594 322.688 104.869 322.147 103.793 321.069C103.003 318.055 103.685 315.523 104.328 312.52C105.025 309.216 105.025 309.216 104.259 306.016C102.731 304.028 100.546 302.561 98.5369 301.088C97.3827 300.237 96.6114 299.578 95.8066 298.371C97.382 299.096 98.5991 300.07 99.9279 301.171C101.09 301.88 102.022 301.974 103.373 302.154C103.983 302.28 104.592 302.412 105.2 302.548C105.686 302.657 105.686 302.657 106.181 302.768C106.511 302.843 106.842 302.918 107.182 302.995C107.844 303.144 108.505 303.293 109.167 303.441C109.457 303.507 109.747 303.573 110.046 303.64C110.34 303.705 110.635 303.769 110.939 303.836C111.263 303.908 111.588 303.981 111.922 304.056C116.574 304.886 121.489 304.784 126.202 304.913C126.516 304.921 126.831 304.93 127.154 304.939C174.074 306.584 174.074 306.584 216.443 289.124C217.059 288.686 217.059 288.686 217.688 288.239C220.851 285.942 223.707 283.409 226.531 280.717C226.829 280.442 227.126 280.167 227.433 279.883C239.943 267.959 247.247 249.454 247.689 232.383C247.824 225.447 247.695 218.598 246.287 211.782C246.22 211.442 246.152 211.101 246.083 210.751C243.32 196.95 237.092 183.521 228.707 172.246C222.47 163.814 216.577 155.076 210.979 146.209C210.001 144.666 209.02 143.125 208.036 141.586C207.862 141.31 207.687 141.034 207.508 140.75C206.718 139.481 206.718 139.481 205.514 138.643C205.514 138.366 205.514 138.088 205.514 137.803C205.211 137.751 204.908 137.699 204.595 137.645C203.413 137.382 203.413 137.382 202.441 136.962C199.853 135.999 197.019 136.058 194.289 136.055C193.759 136.052 193.759 136.052 193.219 136.049C192.044 136.042 190.87 136.039 189.695 136.035C188.85 136.031 188.005 136.027 187.159 136.022C184.87 136.011 182.581 136.002 180.292 135.994C177.898 135.985 175.504 135.973 173.109 135.962C168.578 135.941 164.047 135.922 159.515 135.904C154.355 135.883 149.195 135.86 144.036 135.837C133.424 135.789 122.812 135.744 112.2 135.701C112.086 135.468 111.972 135.235 111.855 134.995C111.705 134.69 111.554 134.385 111.4 134.072C111.251 133.769 111.102 133.467 110.949 133.155C110.485 132.275 109.99 131.619 109.266 130.936C109.045 130.723 108.825 130.51 108.598 130.291C108.374 130.082 108.149 129.874 107.918 129.659C105.098 126.976 105.098 126.976 104.939 125.091C105.07 123.287 105.497 122.445 106.473 120.937C106.623 120.704 106.774 120.471 106.929 120.231C119.229 101.523 137.607 91.4846 159.208 86.9305C160.63 86.6375 162.053 86.3621 163.481 86.1013C163.267 85.9534 163.054 85.8054 162.834 85.653C159.236 83.0729 156.466 80.023 155.494 75.5929C155.149 69.8264 155.469 65.5222 159.287 60.9238C165.551 54.2637 177.696 52.267 185.521 57.3411Z" fill="#7E2316"/>
<path d="M288.572 6.48146C288.869 6.1829 289.25 6.34516 289.114 6.75398C289.003 6.96792 288.892 7.18186 288.778 7.40228C287.117 10.6578 286.273 13.5423 287.386 17.1609C289.121 21.836 292.241 24.3899 296.607 26.4734C300.485 28.0383 304.584 28.4218 308.698 28.9043C313.111 29.4279 317.437 30.1464 321.492 32.0644C321.694 32.1575 321.896 32.2506 322.104 32.3466C329.27 35.7291 335.023 41.8506 337.854 49.2873C340.368 56.3568 340.239 63.9522 337.097 70.7965C334.713 75.6998 331.151 79.8282 326.914 83.2132C323.743 85.7538 319.779 89.1163 319.205 93.4158C318.938 95.9921 319.586 98.2475 321.069 100.365C322.051 101.555 323.236 102.451 324.456 103.377C325.741 104.364 326.907 105.433 328.049 106.582C328.206 106.739 328.364 106.895 328.525 107.056C329.795 108.353 330.934 109.631 331.54 111.538C331.797 112.348 331.952 113.045 332.099 113.781C332.747 117.019 332.247 120.699 331.946 122.303C331.658 123.201 331.216 124.526 330.862 125.164C330.627 125.589 330.518 125.783 330.455 125.846C330.184 126.118 328.785 127.617 328.693 127.617C328.66 127.403 328.185 124.159 328.151 123.938C327.609 121.894 328.086 122.86 327.202 120.395C327.127 120.187 326.969 119.85 326.796 119.578C326.544 119.182 326.544 119.182 326.287 118.777C322.824 113.705 315.514 111.636 310.117 109.57C306.711 108.256 303.908 106.644 301.313 104.044C301.121 103.857 300.928 103.67 300.73 103.477C297.607 100.229 296.27 95.9686 296.332 91.5251C296.335 91.2367 296.338 90.9483 296.342 90.6512C296.462 84.8688 299.264 80.5252 302.635 76.0223C305.535 72.1351 306.583 69.1523 306.193 64.256C305.786 62.3462 304.765 60.7929 303.482 59.3506C303.328 59.1777 303.174 59.0049 303.016 58.8268C300.215 56.0331 296.283 54.5392 292.638 53.2189C284.681 50.3332 278.102 45.7433 274.255 38.0088C272.072 32.7735 271.889 27.1128 273.662 21.7427C273.754 21.4585 273.846 21.1743 273.941 20.8814C276.304 14.4644 281.838 10.3616 287.568 7.17128C288.257 6.8221 288.437 6.61767 288.572 6.48146Z" fill="#FECF67"/>
<g filter="url(#filter0_d_152_580)">
<path d="M159.288 60.8006C165.552 54.1409 177.695 52.144 185.52 57.2176C189.076 59.81 191.469 62.9277 192.994 66.9715C193.225 67.5854 193.348 68.2353 193.381 68.8905C193.645 73.9862 193.355 78.2348 189.831 82.3788C188.343 83.9996 186.838 84.9515 184.918 85.9784C185.253 86.0393 185.589 86.1001 185.935 86.1629C199.742 88.7053 212.474 92.7966 224.009 101.11C224.265 101.294 224.52 101.477 224.784 101.666C231.179 106.318 236.295 111.888 240.823 118.345C241.301 119.005 241.301 119.006 241.79 119.68C243.929 122.78 243.93 122.78 244.054 124.78C243.438 128.085 241.362 129.577 238.864 131.65C237.563 132.954 236.661 134.234 236.577 136.116C238.531 145.216 245.233 151.063 251.786 157.106C254.342 159.483 256.76 161.966 259.025 164.621C259.753 165.44 260.522 166.188 261.314 166.945C263.704 169.312 265.71 171.984 267.724 174.669C268.027 175.069 268.027 175.07 268.335 175.478C272.124 180.537 275.213 185.937 278.233 191.482C278.763 191.222 279.293 190.96 279.822 190.698C280.117 190.552 280.412 190.407 280.716 190.257C288.613 186.17 292.875 175.689 296.866 168.229C311.135 141.561 311.136 141.561 323.355 137.167C327.104 136.063 331.302 136.34 335.171 136.318C335.452 136.317 335.733 136.315 336.022 136.313C337.502 136.305 338.982 136.299 340.461 136.295C341.983 136.29 343.505 136.275 345.027 136.259C346.205 136.248 347.385 136.245 348.563 136.243C349.396 136.24 350.228 136.229 351.061 136.218C351.821 136.219 351.821 136.22 352.596 136.222C353.041 136.219 353.485 136.216 353.943 136.214C355.463 136.471 355.958 137.027 357.045 138.099C357.303 139.155 357.513 139.156 357.255 140.202C356.407 141.024 356.407 141.025 355.233 141.805C354.812 142.093 354.391 142.381 353.958 142.678C353.52 142.97 353.083 143.263 352.632 143.564C336.276 154.977 332.811 176.769 329.518 195.208C328.84 199.077 328.3 202.955 327.806 206.851C325.341 226.305 319.212 243.641 305.975 258.316C305.691 258.631 305.407 258.946 305.115 259.27C302.588 261.922 299.667 264.134 296.727 266.303C296.451 266.506 296.175 266.711 295.89 266.921C289.513 271.554 278.825 278.913 270.667 278.913C270.497 279.277 270.497 279.277 270.324 279.648C266.928 286.104 259.894 292.326 254.289 296.794C252.466 298.271 250.703 299.815 248.936 301.357C248.684 301.578 248.431 301.797 248.17 302.024C247.926 302.238 247.681 302.453 247.429 302.674C246.736 303.268 246.025 303.835 245.31 304.402C244.016 305.543 243.447 306.262 243.233 307.964C243.236 308.421 243.236 308.421 243.24 308.888C243.237 309.34 243.236 309.341 243.233 309.803C243.319 310.928 243.319 310.928 243.76 312.239C244.226 313.95 244.355 315.455 244.37 317.216C244.383 317.506 244.396 317.796 244.411 318.095C244.427 319.692 244.234 320.461 243.281 321.758C241.911 322.754 241.241 322.936 239.562 323.048C239.281 323.067 238.999 323.087 238.709 323.107C218.696 324.33 198.537 323.968 178.496 323.967C175.925 323.967 173.355 323.97 170.785 323.975C155.272 324.006 139.771 323.946 124.263 323.49C123.95 323.481 123.636 323.471 123.313 323.462C121.249 323.401 119.184 323.337 117.12 323.27C116.614 323.254 116.108 323.238 115.586 323.222C114.177 323.173 112.768 323.112 111.359 323.048C110.865 323.032 110.371 323.016 109.862 323C109.379 322.977 108.896 322.953 108.398 322.929C107.967 322.911 107.536 322.894 107.092 322.876C105.593 322.565 104.868 322.023 103.793 320.946C103.002 317.932 103.685 315.399 104.329 312.396C105.025 309.094 105.025 309.093 104.259 305.893C102.807 304.004 100.786 302.651 98.898 301.227C88.5658 293.428 79.0917 284.005 72.647 272.721C70.0062 268.182 66.6323 265.359 62.4995 262.241C61.2791 261.314 60.0739 260.368 58.8697 259.42C58.6267 259.229 58.3836 259.038 58.1333 258.841C56.0558 257.204 53.9908 255.551 51.9283 253.895C50.3981 252.668 48.8593 251.453 47.312 250.248C42.8326 246.755 38.5259 243.099 34.3638 239.233C33.3004 238.254 32.2175 237.303 31.1275 236.353C16.0925 222.786 4.40075 203.148 2.91263 182.656C2.15413 164.549 5.58724 146.794 17.6245 132.636C17.9349 132.267 18.2452 131.898 18.565 131.517C27.6768 121.046 40.6382 113.86 54.6138 112.88C69.9115 112.016 84.2778 117.494 95.7017 127.606C100.167 131.649 104.014 135.864 107.484 140.796C108.026 141.5 108.617 142.109 109.257 142.723C109.413 142.308 109.414 142.307 109.573 141.883C110.098 140.622 110.099 140.622 110.543 139.867C111.625 137.996 111.99 136.628 111.696 134.412C111.051 132.618 109.974 131.418 108.626 130.113C108.084 129.57 107.33 129.028 106.788 128.485C106.425 128.136 106.425 128.136 106.055 127.779C105.136 126.818 105.053 126.324 104.939 124.968C105.07 123.164 105.497 122.321 106.472 120.813C106.623 120.58 106.773 120.347 106.928 120.107C119.228 101.4 137.607 91.3616 159.209 86.8075C160.63 86.5146 162.054 86.2391 163.481 85.9784C163.268 85.8304 163.053 85.6825 162.834 85.5301C159.236 82.95 156.466 79.8996 155.495 75.4696C155.149 69.7032 155.469 65.399 159.288 60.8006ZM85.2984 142.75C72.9761 133.934 56.035 132.092 42.9038 140.093C33.9195 146.209 28.1351 156.557 25.9781 167.053C23.1601 183.829 28.6322 200.907 38.105 214.674C38.2872 214.935 38.4644 215.188 38.6411 215.441C43.1253 221.867 48.4591 227.34 54.3033 232.542C54.5786 232.784 54.8455 233.019 55.1128 233.254C56.9457 234.869 58.7627 236.143 60.9185 237.299C60.5518 207.893 70.5162 184.626 90.7261 163.312C91.0182 163.005 91.302 162.707 91.5855 162.409C92.1605 161.802 92.7357 161.195 93.3111 160.588C93.5951 160.292 93.8704 160.005 94.146 159.718C94.5409 159.301 94.5412 159.302 94.9283 158.893C95.8726 157.906 96.5036 157.001 97.0679 155.754C94.0234 150.591 89.9957 146.442 85.2984 142.75Z" fill="#992E19"/>
</g>
<path d="M199.599 97.8408C201.884 99.7984 204.066 101.869 206.382 103.79C208.467 105.605 210.125 107.764 211.82 109.937C212.045 110.21 212.271 110.482 212.503 110.763C214.445 113.157 215.909 115.642 217.284 118.396C217.495 118.796 217.706 119.195 217.923 119.606C219.568 122.874 219.568 122.874 219.386 124.672C218.966 125.91 218.966 125.91 217.705 126.75C216.835 126.859 216.835 126.859 215.813 126.863C179.603 127.202 143.396 127.151 107.185 127.273C106.316 127.171 105.895 126.96 105.265 126.75C104.424 124.438 105.231 122.733 106.473 120.813C106.624 120.58 106.774 120.347 106.929 120.107C118.699 102.207 136.4 91.6875 157.176 87.2388C157.501 87.1646 157.826 87.0905 158.16 87.0141C173.238 83.5861 187.76 88.2565 199.599 97.8408Z" fill="#9A2E19"/>
<path d="M185.521 57.218C188.152 59.1363 190.061 61.3839 191.543 64.0369C192.921 66.5027 193.513 69.3388 193.446 72.1626C193.357 75.8649 192.574 79.1536 189.831 82.3791C188.343 83.9999 186.838 84.9514 184.918 85.9782C185.254 86.0392 185.589 86.1002 185.935 86.1631C199.743 88.7054 212.474 92.7968 224.009 101.11C224.265 101.294 224.521 101.477 224.784 101.666C231.18 106.318 236.295 111.887 240.823 118.344C241.142 118.785 241.461 119.225 241.79 119.679C243.93 122.78 243.93 122.78 244.054 124.781C243.438 128.086 241.362 129.577 238.864 131.65C237.563 132.954 236.409 135.157 236.577 136.116C238.531 145.216 245.233 151.063 251.786 157.106C254.342 159.483 256.76 161.965 259.025 164.621C259.753 165.439 260.522 166.189 261.314 166.946C263.704 169.313 265.71 171.984 267.724 174.669C268.027 175.07 268.027 175.07 268.335 175.479C272.124 180.538 275.213 185.938 278.233 191.483C278.763 191.222 279.292 190.96 279.822 190.698C280.117 190.552 280.412 190.406 280.716 190.256C288.613 186.17 292.876 175.689 296.866 168.229C311.135 141.561 311.135 141.561 323.355 137.167C327.104 136.063 331.302 136.341 335.172 136.318C335.452 136.317 335.733 136.315 336.022 136.313C337.502 136.305 338.981 136.299 340.461 136.295C341.983 136.29 343.505 136.275 345.027 136.259C346.206 136.248 347.384 136.244 348.563 136.243C349.396 136.24 350.228 136.229 351.061 136.217C351.821 136.219 351.821 136.219 352.597 136.221C353.041 136.219 353.485 136.216 353.943 136.214C355.463 136.471 355.958 137.027 357.045 138.1C357.303 139.156 357.514 139.156 357.256 140.202C356.407 141.024 356.407 141.024 355.233 141.804C354.812 142.092 354.391 142.381 353.957 142.678C353.52 142.97 353.083 143.263 352.632 143.564C336.275 154.977 332.811 176.77 329.518 195.208C328.84 199.077 328.3 202.954 327.806 206.851C325.34 226.305 319.211 243.641 305.975 258.316C305.691 258.631 305.407 258.946 305.114 259.27C302.587 261.921 299.668 264.134 296.727 266.303C296.451 266.506 296.175 266.71 295.89 266.921C289.513 271.554 278.825 278.913 270.667 278.913C270.497 279.277 270.497 279.277 270.323 279.648C266.927 286.104 259.893 292.325 254.288 296.793C252.466 298.271 250.703 299.814 248.936 301.357C248.557 301.687 248.557 301.687 248.17 302.025C247.926 302.239 247.681 302.453 247.429 302.674C246.735 303.268 246.025 303.835 245.31 304.402C244.016 305.543 243.447 306.261 243.233 307.963C243.235 308.269 243.237 308.574 243.24 308.888C243.237 309.19 243.235 309.491 243.233 309.802C243.319 310.928 243.114 311.018 243.555 312.329C244.021 314.04 244.354 315.455 244.369 317.216C244.383 317.506 244.397 317.796 244.411 318.094C244.428 319.692 244.234 320.46 243.281 321.757C241.911 322.753 241.241 322.937 239.562 323.048C239.139 323.077 239.139 323.077 238.708 323.107C218.696 324.329 198.537 323.968 178.496 323.966C175.926 323.967 173.355 323.97 170.784 323.975C155.271 324.006 139.771 323.945 124.263 323.49C123.95 323.481 123.636 323.471 123.313 323.462C121.249 323.402 119.184 323.337 117.12 323.27C116.614 323.254 116.108 323.238 115.586 323.222C114.177 323.173 112.768 323.112 111.359 323.048C110.865 323.032 110.371 323.016 109.862 323C109.379 322.976 108.896 322.953 108.398 322.929C107.967 322.911 107.537 322.894 107.093 322.876C105.594 322.565 104.869 322.023 103.793 320.946C103.003 317.932 103.685 315.4 104.328 312.397C105.025 309.093 105.025 309.093 104.259 305.893C102.731 303.904 100.546 302.438 98.5369 300.965C97.3827 300.114 96.6114 299.455 95.8066 298.248C97.382 298.973 98.5991 299.947 99.9279 301.048C101.09 301.757 102.022 301.851 103.373 302.031C103.983 302.157 104.592 302.289 105.2 302.425C105.686 302.534 105.686 302.534 106.181 302.645C106.511 302.72 106.842 302.795 107.182 302.872C107.844 303.021 108.505 303.17 109.167 303.318C109.457 303.384 109.747 303.45 110.046 303.517C110.34 303.582 110.635 303.646 110.939 303.712C111.263 303.785 111.588 303.858 111.922 303.933C116.574 304.763 121.489 304.661 126.202 304.79C126.516 304.798 126.831 304.807 127.154 304.816C174.074 306.461 174.074 306.461 216.443 289.001C217.059 288.563 217.059 288.563 217.688 288.116C220.851 285.819 223.707 283.286 226.531 280.594C226.829 280.319 227.126 280.043 227.433 279.76C239.943 267.836 247.247 249.331 247.689 232.26C247.824 225.324 247.695 218.475 246.287 211.659C246.22 211.318 246.152 210.978 246.083 210.627C243.32 196.827 237.092 183.398 228.707 172.123C222.47 163.691 216.577 154.953 210.979 146.086C210.001 144.543 209.02 143.002 208.036 141.463C207.862 141.187 207.687 140.911 207.508 140.627C205.769 137.831 205.238 138.048 202.441 136.839C199.853 135.876 197.019 135.935 194.289 135.932C193.759 135.929 193.759 135.929 193.219 135.925C192.044 135.919 190.87 135.916 189.695 135.912C188.85 135.908 188.005 135.904 187.159 135.899C184.87 135.888 182.581 135.879 180.292 135.871C177.898 135.862 175.504 135.85 173.109 135.839C168.578 135.818 164.047 135.799 159.515 135.781C154.355 135.76 149.195 135.737 144.036 135.714C133.424 135.666 122.812 135.621 112.2 135.578C112.086 135.345 111.972 135.112 111.855 134.872C111.705 134.567 111.554 134.262 111.4 133.949C111.251 133.646 111.102 133.344 110.949 133.032C110.485 132.152 109.99 131.496 109.266 130.813C109.045 130.6 108.825 130.387 108.598 130.168C108.374 129.959 108.149 129.751 107.918 129.536C105.098 126.853 105.098 126.853 104.939 124.968C105.07 123.164 105.497 122.322 106.473 120.814C106.623 120.581 106.774 120.348 106.929 120.108C119.229 101.4 137.607 91.3616 159.208 86.8074C160.63 86.5145 162.053 86.239 163.481 85.9782C163.267 85.8303 163.054 85.6824 162.834 85.53C159.236 82.9499 156.466 79.8999 155.494 75.4698C155.149 69.7034 155.469 65.3992 159.287 60.8008C165.551 54.1406 177.696 52.1439 185.521 57.218Z" fill="#7E2316"/>
<path d="M346.957 136.208C349.285 136.212 352.196 136.199 354.524 136.208C354.734 136.208 355.785 136.838 356.205 137.258C355.564 137.253 351.992 137.253 351.338 137.247C344.537 137.332 340.466 140.597 335.819 145.245C335.516 145.547 335.214 145.85 334.902 146.161C321.573 160.347 317.012 182.181 313.698 200.65C310.511 218.023 302.978 233.932 288.373 244.421C287.69 244.864 287.06 245.285 286.219 245.285C286.262 244.724 286.262 244.724 286.306 244.152C287.502 227.653 280.535 199.258 279.699 196.222C279.493 195.475 278.653 192.743 278.232 191.482C279.073 191.061 279.59 190.707 280.833 190.011C282.602 188.961 284.013 187.998 285.378 186.438C285.56 186.238 285.743 186.037 285.93 185.831C287.679 183.866 289.079 181.77 290.449 179.529C290.683 179.148 290.917 178.767 291.158 178.375C293.178 175.055 295.033 171.655 296.866 168.229C311.043 141.734 311.043 141.734 323.401 137.137C330.564 135.577 339.688 136.194 346.957 136.208Z" fill="#9D301A"/>
<path d="M104.844 307.915C118.925 307.915 239.339 310.017 243.135 310.017C243.135 310.437 243.975 313.169 244.185 313.8C244.185 314.22 244.423 315.9 244.37 317.03C244.388 317.333 244.352 317.637 244.37 317.95C244.409 319.654 244.318 320.343 243.284 321.768C241.913 322.749 241.233 322.936 239.562 323.047C239.28 323.067 238.999 323.086 238.708 323.106C218.696 324.329 198.537 323.967 178.496 323.965C175.925 323.966 173.355 323.969 170.784 323.974C155.271 324.005 139.771 323.944 124.263 323.489C123.95 323.48 123.636 323.47 123.313 323.461C121.249 323.401 119.184 323.336 117.12 323.269C116.614 323.253 116.108 323.237 115.586 323.221C114.177 323.172 112.768 323.111 111.359 323.047C110.865 323.031 110.371 323.015 109.862 322.999C109.379 322.975 108.896 322.952 108.398 322.928C107.752 322.902 107.752 322.902 107.093 322.875C105.593 322.564 104.869 322.023 103.793 320.945C102.532 317.162 105.054 309.596 104.844 309.176C104.844 308.756 104.634 307.915 104.844 307.915Z" fill="#9B2F1A"/>
<path d="M84.0374 135.157C85.9636 136.729 87.7496 138.44 89.5017 140.201C90.0065 140.706 90.0065 140.706 90.5214 141.221C93.3736 144.235 96.461 147.683 98.7491 151.13C98.3288 151.551 96.6475 152.601 95.3865 153.232C93.5808 150.276 92.733 150.267 90.3424 147.767C90.0894 147.483 89.8363 147.198 89.5756 146.905C82.9733 139.759 72.7875 135.873 63.2061 135.478C53.9945 135.267 45.4962 137.515 38.641 143.984C38.3333 144.275 38.0255 144.565 37.7084 144.864C33.107 149.595 29.7208 155.807 27.7123 162.059C27.6251 162.322 27.538 162.586 27.4482 162.857C24.8883 170.919 25.0802 181.268 27.292 189.381C27.4677 190.079 27.6434 190.777 27.819 191.476C29.1227 196.478 30.8622 201.153 33.1767 205.774C33.3168 206.055 33.4569 206.335 33.6013 206.625C37.1118 213.523 41.8411 219.788 47.2553 225.304C47.9133 225.975 48.5617 226.655 49.2102 227.336C52.0644 230.296 58.1867 236.038 60.9189 237.299C61.1097 237.387 61.5494 246.336 61.971 247.912C59.8327 245.511 57.1248 243.365 54.6401 241.345C54.349 241.109 54.0578 240.872 53.7579 240.629C51.7468 238.988 49.7991 237.3 47.895 235.536C44.9937 232.841 41.3732 229.145 40.0071 227.789C35.4764 223.293 31.9757 217.851 28.553 212.499C28.3671 212.214 28.1811 211.929 27.9896 211.635C19.3009 198.215 15.0555 180.989 18.4222 165.152C21.3339 153.094 27.4697 141.861 38.0828 134.911C39.6465 133.961 41.224 133.064 42.8444 132.215C43.3142 131.949 43.3142 131.949 43.7935 131.678C56.2527 124.914 72.9319 126.768 84.0374 135.157Z" fill="#7C2315"/>
<path d="M242.732 128.138C241.557 129.432 240.207 130.536 238.864 131.65C237.04 133.266 236.829 135.158 236.619 135.578C195.838 135.578 153.796 135.578 111.779 135.578C111.779 134.527 111.09 133.358 110.518 132.215C109.149 130.349 107.152 128.754 105.474 127.171C105.388 127.09 105.264 126.961 105.264 126.751C105.684 126.751 105.895 126.727 106.315 126.751C107.04 126.792 107.767 126.803 108.494 126.802C136.227 126.851 163.96 126.779 191.694 126.772C208.63 126.768 226.408 126.76 243.345 126.751C243.345 126.961 243.345 126.961 242.732 128.138Z" fill="#5D1A11"/>
<path d="M155.495 93.5437C156.335 94.3844 156.335 94.3844 156.503 95.7784C156.299 97.6588 155.866 98.1355 154.496 99.4022C154.109 99.7625 153.722 100.123 153.324 100.494C151.939 101.697 150.528 102.852 149.083 103.982C145.43 106.866 141.974 109.932 138.681 113.221C138.424 113.477 138.168 113.733 137.903 113.997C136.454 115.465 135.119 116.962 133.87 118.606C132.215 120.071 129.685 119.66 127.6 119.646C123.727 119.639 119.855 119.624 115.983 119.605C116.203 118.14 116.465 117.229 117.444 116.114C117.761 115.748 117.761 115.748 118.084 115.375C118.31 115.124 118.535 114.872 118.768 114.613C119.113 114.22 119.113 114.22 119.466 113.82C122.285 110.639 125.21 107.897 128.593 105.313C128.992 104.998 129.391 104.682 129.801 104.358C136.053 99.6233 147.152 91.8752 155.495 93.5437Z" fill="#B83E24"/>
<path d="M174.41 57.815C175.749 58.5682 176.312 59.1451 177.063 60.4684C177.432 61.9127 177.511 63.0541 177.352 64.5404C175.963 66.8041 173.761 68.0294 171.572 69.4268C171.207 69.6674 170.842 69.9079 170.466 70.1558C164.604 73.9407 164.604 73.9407 161.379 73.3674C159.905 72.3099 159.353 71.6997 159.041 69.8997C159.64 65.9037 161.748 63.0008 164.742 60.337C167.825 58.3902 170.752 57.3944 174.41 57.815Z" fill="#A5351E"/>
<path d="M109.258 142.723C107.647 147.877 101.809 152.887 97.0678 155.753C96.8577 155.333 95.7132 153.957 95.3865 153.231C98.2472 151.801 99.4763 150.494 101.902 148.397C104.003 146.506 106.031 144.015 107.366 140.621C107.997 141.462 108.837 142.302 109.258 142.723Z" fill="#6D1D12"/>
<path d="M63.8611 134.316C64.5266 134.305 65.1921 134.297 65.8577 134.29C66.4136 134.283 66.4136 134.283 66.9808 134.275C67.9728 134.313 68.7979 134.456 69.7458 134.737C69.7458 135.153 69.7458 135.569 69.7458 135.998C69.0011 135.961 68.2568 135.916 67.5128 135.866C67.0982 135.842 66.6837 135.818 66.2567 135.793C65.0196 135.558 64.6253 135.289 63.8611 134.316Z" fill="#7B2A1D"/>
<path d="M304.714 257.475C305.13 257.475 305.546 257.475 305.975 257.475C305.534 258.577 305.282 259.069 304.241 259.681C303.981 259.785 303.721 259.889 303.453 259.997C303.453 259.58 303.453 259.164 303.453 258.736C303.73 258.736 304.008 258.736 304.294 258.736C304.432 258.319 304.571 257.903 304.714 257.475Z" fill="#6B2218"/>
</g>
<defs>
<filter id="filter0_d_152_580" x="-1.18726" y="54.3643" width="362.56" height="279.653" filterUnits="userSpaceOnUse" color-interpolation-filters="sRGB">
<feFlood flood-opacity="0" result="BackgroundImageFix"/>
<feColorMatrix in="SourceAlpha" type="matrix" values="0 0 0 0 0 0 0 0 0 0 0 0 0 0 0 0 0 0 127 0" result="hardAlpha"/>
<feOffset dy="6"/>
<feGaussianBlur stdDeviation="2"/>
<feComposite in2="hardAlpha" operator="out"/>
<feColorMatrix type="matrix" values="0 0 0 0 0 0 0 0 0 0 0 0 0 0 0 0 0 0 0.25 0"/>
<feBlend mode="normal" in2="BackgroundImageFix" result="effect1_dropShadow_152_580"/>
<feBlend mode="normal" in="SourceGraphic" in2="effect1_dropShadow_152_580" result="shape"/>
</filter>
<clipPath id="clip0_152_580">
<rect width="360" height="360" fill="white"/>
</clipPath>
</defs>
</svg>
