<svg width="644" height="644" viewBox="0 0 644 644" fill="none" xmlns="http://www.w3.org/2000/svg">
<path d="M598.258 490.5C597.482 496.336 597.115 499.624 596.758 505.5C595.991 518.112 595.802 531.533 598.258 544C600.079 553.24 604.126 561.856 606.258 571C608.131 579.033 608.824 586.756 608.258 595C607.716 602.899 606.249 608.647 602.258 615.5C598.617 621.754 594.298 627.313 588.758 632C582.82 637.023 575.996 641.086 568.258 642.5C558.767 644.234 550.203 641.754 541.758 637.5C533.815 633.499 528.342 628.295 523.258 621C517.062 612.109 513.283 602.113 511.258 591.5C509.085 580.108 509.693 568.933 511.258 557.5C513.36 542.144 517.933 527.807 523.758 513.5C529.986 498.205 537.375 483.23 545.758 469C554.553 454.073 563.62 440.412 569.758 424C576.682 405.488 581.724 384.528 575.758 365C573.242 356.762 560.064 346.371 552.758 341.5C556.258 335.5 555.758 327 555.258 321C562.295 321.782 567.741 323.825 573.758 327.5C577.226 329.618 579.194 330.832 582.258 333.5C591.467 341.517 598.64 353.709 603.258 365C610.173 381.906 612.719 402.487 611.258 420.5C610.48 430.092 608.631 439.575 606.758 449C604 462.879 600.129 476.441 598.258 490.5Z" fill="url(#paint0_linear_185_639)"/>
<path d="M598.258 490.5C597.482 496.336 597.115 499.624 596.758 505.5C595.991 518.112 595.802 531.533 598.258 544C600.079 553.24 604.126 561.856 606.258 571C608.131 579.033 608.824 586.756 608.258 595C607.716 602.899 606.248 608.647 602.258 615.5C592.452 632.342 575.195 638.342 556.259 635C541.107 627.368 532.645 618.249 529.258 600.5C524.021 573.052 538.315 543.921 548.258 519.5C566.259 483.5 581.932 447.304 596.258 409C608.829 375.39 587.258 341.5 557.258 328.5C556.258 324 556.258 327 555.258 321C562.295 321.782 567.741 323.825 573.758 327.5C577.226 329.618 579.193 330.832 582.258 333.5C591.467 341.517 598.64 353.709 603.258 365C610.173 381.906 612.719 402.487 611.258 420.5C610.48 430.092 608.631 439.575 606.758 449C604 462.879 600.129 476.441 598.258 490.5Z" fill="url(#paint1_linear_185_639)"/>
<path d="M598.259 483.5C597.482 489.336 597.116 499.624 596.759 505.5C595.992 518.112 595.802 531.533 598.259 544C600.079 553.24 604.126 561.855 606.259 571C608.132 579.033 608.825 586.756 608.259 595C607.716 602.899 606.258 609 602.259 615.5C599.489 620 597.395 622.256 594.259 624C584.178 629.608 576.406 625.86 569.259 618.5C562.965 612.018 563.259 605.5 561.759 592.5C560.316 580 561.316 558.421 571.259 534C579.258 516 579.759 509.5 598.259 483.5Z" fill="url(#paint2_linear_185_639)"/>
<path d="M124.369 12.607C163.397 -12.0782 223.845 3.4417 250.259 38.9976C263.63 56.998 272.759 84.998 273.759 106.999C273.765 110.988 388.766 199.033 448.616 245.5C449.054 245.84 449.523 246.109 449.907 246.509C455.89 252.761 457.707 298.425 456.259 310.499L456.247 310.597C455.974 312.871 455.794 314.37 456.259 313.999C458.759 311.999 467.094 307.821 475.259 303.499C483.759 298.999 496.259 295.499 508.759 293.999C522.185 292.387 549.501 294.241 553.759 298.499L555.33 300.07C557.205 301.945 558.089 304.547 556.62 306.755C556.13 307.491 555.627 308.13 555.259 308.499C554.38 309.378 554.759 319.999 556.259 324.999C556.572 326.355 556.972 327.974 557.409 329.685C559.164 336.552 553.564 343.182 546.483 342.869C541.974 342.669 537.282 342.628 533.759 342.999C521.839 344.253 509.761 353.981 504.753 359.898C504.418 360.294 504.075 360.662 503.703 361.023C495.893 368.595 471.18 400.076 466.759 407.999C454.758 429.499 415.037 458.999 397.259 470.499C365.259 488.974 337.258 503.499 251.759 501.499C186.759 498.999 111.759 434.499 97.7586 408.999C82.129 386.043 64.1137 339.231 63.2878 281.147C63.2501 278.495 62.1799 275.967 60.4177 273.985C27.6761 237.155 29.8959 163.797 39.2586 120.998C42.7586 104.998 57.2586 68.9976 75.7586 49.9976C94.931 30.307 111.164 18.913 123.106 13.3003C123.542 13.0955 123.962 12.8644 124.369 12.607ZM195.706 45.2066C187.857 43.6238 178.272 42.9968 167.213 43.4996L167.189 43.5005L167.167 43.5025C153.46 44.7715 139.432 50.7256 127.659 58.2173C115.924 65.6852 106.315 74.7538 101.45 82.4058C89.3356 97.0669 81.3008 117.71 75.2986 138.217L75.2859 138.261L75.2771 138.307C71.7567 156.413 71.251 183.032 73.7712 198.658L73.7752 198.68L73.7791 198.702C75.4116 206.538 77.5502 211.129 79.2732 213.815C79.9274 214.834 81.0209 215.198 82.0232 214.993C82.9985 214.793 83.8642 214.068 84.2253 213.003C88.3522 200.844 96.8997 188.023 106.019 176.71C115.127 165.411 124.748 155.686 130.952 149.72L130.979 149.693C143.387 136.79 159.474 129.115 176.606 123.047C185.173 120.014 193.968 117.392 202.687 114.712C211.395 112.036 220.02 109.303 228.19 106.058C231.93 104.573 235.406 101.758 236.35 97.5621C236.651 96.2274 236.772 94.8702 236.57 93.4546C236.025 89.6467 234.237 82.0001 230.656 74.0494C227.088 66.1263 221.687 57.7828 213.85 52.6919C209.678 49.3175 203.518 46.7819 195.706 45.2066Z" fill="url(#paint3_radial_185_639)"/>
<path d="M124.369 12.6066C163.397 -12.0783 223.845 3.44239 250.259 38.9982C263.63 56.999 271.758 106.5 272.258 109C245.444 105.531 169.276 119.574 116.701 164.314C122.127 158.384 127.173 153.355 130.952 149.721L130.979 149.694C143.387 136.791 159.474 129.116 176.606 123.048C185.173 120.014 193.969 117.393 202.687 114.713C211.395 112.037 220.02 109.304 228.19 106.059C231.93 104.574 235.406 101.758 236.35 97.5627C236.651 96.228 236.773 94.8708 236.57 93.4553C236.026 89.6474 234.237 82.0008 230.656 74.05C227.088 66.1269 221.687 57.7834 213.85 52.6926C209.679 49.3182 203.518 46.7826 195.706 45.2072C187.857 43.6245 178.272 42.9974 167.213 43.5002L167.189 43.5012L167.167 43.5031C153.46 44.7721 139.432 50.7262 127.659 58.218C115.924 65.6858 106.316 74.7545 101.45 82.4064C89.3358 97.0675 81.301 117.711 75.2987 138.218L75.286 138.262L75.2772 138.308C71.7568 156.414 71.2511 183.033 73.7714 198.658L73.7753 198.681L73.7792 198.702C75.109 205.085 76.775 209.316 78.2782 212.116C71.2524 225.994 66.3476 241.499 64.3114 258.768C63.3874 266.603 58.9133 267.733 56.663 260.171C46.8745 227.276 31.833 154.944 39.2587 120.998C42.7587 104.998 57.2587 68.9982 75.7587 49.9982C94.9312 30.3076 111.165 18.9136 123.106 13.301C123.542 13.096 123.962 12.8642 124.369 12.6066Z" fill="#2F3A40"/>
<path d="M264.258 63.9989C270.758 82.4992 277.258 107 272.258 109C271.953 87.2185 258.315 59.1818 244.758 42.4989C230.096 24.4568 210.506 12.494 187.258 9.49887C161.367 6.1633 133.728 14.0162 111.758 27.4989C85.6603 43.5143 66.2506 69.7058 54.2577 97.4989C48.067 111.846 42.6904 127.008 40.2577 142.499C37.663 159.021 37.7048 177.001 40.2577 193.499C44.2619 219.376 53.2395 245.349 69.7577 265.999C69.7577 274.999 69.5867 279.409 69.7577 287.999C70.4003 320.271 79.0762 355.323 95.2577 383.499C114.549 417.09 143.703 438.789 176.258 457.999C193.7 468.291 212.539 475.872 232.258 480.499C251.5 485.013 270.1 485.076 289.758 484.499C333.917 483.203 376.732 465.951 410.758 437.999C432.25 420.343 447.454 398.756 465.758 377.999C480.258 361.554 493.21 345.174 514.758 338.499C525.372 335.211 539.123 333.054 550.258 334.999C554.302 335.705 558.758 334.999 555.258 339C553.55 342.809 550.411 343.423 546.258 343H536.758C531.758 343 529.369 343.393 524.758 345.5C520.767 347.324 518.266 348.363 514.758 350.999C490.559 369.176 475.688 397.901 456.258 420.499C427.949 453.422 390.631 478.586 349.258 491.999C296.371 509.144 234.537 506.903 184.258 482.999C152.73 468.01 126.444 446.703 105.258 418.999C87.6279 397.59 79.4085 373.118 70.2577 347.499C67.0884 334.824 65.7584 327.499 64.7577 314.499C63.5977 299.428 63.759 286.5 62.2583 277C60.7583 275 58.2583 272 55.7583 268.5C30.4739 236.317 28.6707 180.362 35.2577 142.499C41.948 104.042 55.7163 69.0306 83.2577 40.4989C111.654 15.9421 140.3 0.00180018 178.258 0C215.543 1.50641 251.852 28.6933 264.258 63.9989Z" fill="url(#paint4_linear_185_639)"/>
<path d="M236.259 93.4994C237.46 91.0129 237.21 89.2604 237.259 86.4994C237.381 79.5001 234.657 73.4369 231.259 67.4994C219.011 46.0981 196.358 34.2841 171.759 35.4994C144.962 36.8233 122.646 47.112 103.759 65.9994C82.0972 87.6609 69.2157 116.186 65.7586 146.499C63.9833 162.066 63.6754 178.241 67.7586 193.499C69.4137 199.685 70.758 206 79.2583 214C77.2583 208.5 76.4892 204.835 75.2586 199.499C73.794 193.149 73.3153 189.493 72.7586 182.999C72.0247 174.439 72.1425 169.569 72.7586 160.999C73.4259 151.718 74.4044 143.923 76.7585 135C82.2885 114.039 92.1416 93.6519 106.759 77.4994C112.992 70.6114 119.487 65.0617 127.259 59.9994C139.24 52.1947 152.436 45.8825 166.759 43.9994C185.428 41.5449 205.727 47.8919 219.259 60.9994C224.757 66.3253 229.702 73.3836 232.758 80.5C234.965 85.6377 236.259 90.9998 236.259 93.4994Z" fill="url(#paint5_linear_185_639)"/>
<path d="M177.259 130.501C183.413 127.921 186.903 126.536 193.259 124.501C207.181 120.043 221.728 115.159 236.258 113.5C245.758 111.5 261.758 110.5 272.258 109C260.713 101.916 236.258 106 223.258 108.5C210.14 110.033 196.648 115.03 184.258 119.5C162.758 126 142.146 138.416 125.258 154C106.133 171.649 93.1329 194.784 82.7588 218.501C84.7303 220.226 86.2591 222.284 88.7588 221.501C90.7583 213.5 106.467 188.532 111.259 182.001C113.803 178.534 115.463 176.768 118.259 173.501C124.141 166.628 130.202 159.7 137.259 154.001C140.967 151.005 143.325 149.694 147.259 147.001C156.901 140.4 166.448 135.031 177.259 130.501Z" fill="url(#paint6_linear_185_639)"/>
<path d="M439.758 331.5C442.758 329 450.758 320.5 456.258 314C457.258 299.5 457.143 279.516 455.259 263.5C453.258 252.5 453.258 246 442.758 241.5C445.906 252.515 447.424 261.588 448.258 273C449.685 292.531 450.188 314.118 439.758 331.5Z" fill="url(#paint7_linear_185_639)"/>
<path d="M308.758 120.5C305.425 118 297.858 112 294.258 108C293.039 106.536 291.758 104.5 291.758 103C291.954 99.6609 296.045 98.3478 297.258 95.5001C298.177 93.3445 296.42 91.6883 297.258 89.5001C298.151 87.1692 300.167 84.8001 302.258 83.5001C320.258 78 364.212 86.4941 381.258 93.5001C386.258 95.9999 392.258 98.4999 394.758 100C394.654 99.2018 394.435 98.7856 394.258 98.0001C393.27 93.6019 393.163 91.0071 393.258 86.5001C393.404 79.6463 394.288 71.6046 397.758 65.5001C399.907 61.7207 403.307 57.0575 406.758 54.5001C410.235 51.9239 415.03 50.3835 419.258 49.5001C425.848 48.1235 433.003 49.0736 439.258 51.5001C442.353 52.7007 444.054 53.5749 446.758 55.5001C451.047 58.5531 454.445 62.24 456.758 67C460.258 73.5 460.505 78.6955 460.258 84.5C459.758 88.5 459.258 93 457.258 97C456.4 99.0072 455.92 99.652 454.758 101.5C449.279 110.213 442.247 113.699 432.758 116.5C428.758 117.5 423.758 117.5 421.258 118.5C424.758 121.5 427.196 123.523 430.758 127C451.836 147.576 464.758 179.5 468.758 208.5C468.964 211.813 469.618 213.794 468.758 217C468.223 219 465.202 221.5 463.758 222.5C461.072 224.361 458.815 221.737 456.258 221.5C453.908 221.282 452.268 223.34 450.258 224.5C449.058 225.193 445.758 224.789 444.258 224.5C439.258 222 387.758 182.5 385.258 179.5C355.313 156.55 338.941 143.137 308.758 120.5Z" fill="url(#paint8_radial_185_639)"/>
<path d="M308.258 121.635C304.925 119.135 297.358 113.135 293.758 109.135C292.539 107.671 291.258 105.635 291.258 104.135C291.454 100.796 295.901 97.5889 296.758 96.5C297.258 95.5 297.258 94 297.258 92C309.428 102.182 343.341 129.724 380.258 158.5C398.019 172.344 415.493 183.813 432.758 195.5C441.758 202.5 451.353 209.942 460.258 215L466.724 215.761C467.477 215.82 468.179 215.894 468.758 216C468.758 217 468.258 218 467.758 218.5C467.222 220.5 464.702 222.635 463.258 223.635C460.572 225.496 458.315 222.872 455.758 222.635C453.408 222.417 451.768 224.475 449.758 225.635C448.558 226.328 445.258 225.924 443.758 225.635C438.758 223.135 387.258 183.635 384.758 180.635C354.813 157.685 338.441 144.272 308.258 121.635Z" fill="#20272E"/>
<path d="M443.758 225.635C438.758 223.135 387.258 183.635 384.758 180.635C367.567 167.46 288.758 109 291.258 105C291.258 102 291.758 101.5 293.258 100L452.258 224C451.258 224.5 451.768 224.475 449.758 225.635C448.558 226.328 445.258 225.924 443.758 225.635Z" fill="#1D232B"/>
<path d="M400.758 105C397.764 104.526 394.688 103.778 391.758 103C378.134 99.3843 364.162 94.7176 350.258 92.5006C333.249 89.7885 314.353 89.1856 297.258 90.5004C297.258 89.0004 297.526 88.5864 298.258 87.5004C299.339 85.8978 300.583 84.4649 302.258 83.5004C303.17 82.9757 304.765 82.8452 305.758 82.5003C311.758 81.5001 318.425 81.7736 325.258 82C332.909 82.2536 335.666 83.0216 343.258 84.0005C349.722 84.8339 352.385 85.1387 358.758 86.5004C366.312 88.1144 372.584 90.1375 379.758 93C386.758 95.7929 393.758 99 400.758 105Z" fill="#3F4D57"/>
<path d="M426.758 123.5C425.758 124 424.258 123.812 423.258 123.5C407.258 118.5 388.543 102.366 376.258 92C379.758 92.5 384.758 94.9999 387.758 96.4999L394.758 100C402.258 106 410.258 112 418.758 117C421.886 119.071 423.758 121 426.758 123.5Z" fill="#2A3239"/>
<path d="M459.758 87.9993C460.258 84.4992 460.217 78.8741 459.758 76.4993C458.672 70.8762 456.005 64.8357 452.258 60.4993C448.183 55.7825 442.248 52.1384 436.258 50.4993C432.758 49 422.79 48.1975 416.758 49.9997C408.758 51.9997 402.258 56.9996 399.258 63.4993C394.745 70.0212 393.258 77.6704 393.258 85.4993C397.94 78.9451 404.301 71.4505 409.758 65.5C413.258 62 419.121 59.569 425.758 59.4993C428.758 59.4677 432.22 59.6116 435.758 60.5C440.018 61.5695 444.067 63.8685 446.758 66.9993C451.944 73.0312 456.227 80.9374 459.758 87.9993Z" fill="#47575F" fill-opacity="0.9"/>
<path d="M395.258 71.5C396.151 68.8209 397.258 65.5 399.758 62.5C399.758 73.9788 400.208 84.8655 409.258 93C416.249 99.2829 430.127 103.489 439.258 100C454.395 94.2159 456.758 80.5727 456.758 67C463.758 80.5 460.258 96.5 451.258 106C445.758 113.5 433.258 117 421.258 118.5C414.758 114.5 408.758 110.5 401.758 106C399.354 103.939 397.258 102 394.758 100C392.758 93 392.258 80.5 395.258 71.5Z" fill="#1E262C" fill-opacity="0.7"/>
<path d="M557.258 301.5C556.837 300.619 556.426 300.213 555.758 299.5C550.258 295 538.484 294.174 532.258 293.5C517.36 291.887 501.364 293.582 487.258 298.5C467.341 305.444 451.758 313 439.258 334C452.521 325.158 464.915 315.168 479.758 309C491.337 304.189 503.71 301.145 516.258 300.5C530.939 299.746 546.258 302 555.258 308.5C556.258 307.5 556.668 307.778 557.258 307C557.758 304.5 557.758 303.5 557.258 301.5Z" fill="#43525A"/>
<path d="M98.7583 308.5C98.7585 296.5 99.2584 288 99.7583 278C113.758 270 126.872 265.718 139.758 264C151.048 262.495 162.457 262.309 173.758 263.5C184.349 264.616 194.646 266.629 204.758 270C214.273 273.172 223.329 277.469 232.258 282C243.954 287.935 254.898 294.667 265.758 302C278.031 310.287 289.633 319.765 302.258 327.5C315.458 335.588 330.18 342.801 344.758 348C356.589 352.219 368.716 355.071 381.258 356C393.87 356.934 405.882 356.726 417.758 352C421.815 350.386 424.258 348.5 427.758 347C428.389 347.312 428.258 348.5 428.258 350C427.449 357.286 424.291 362.92 421.258 369.5C417.871 376.85 414.113 384.176 409.758 391C400.937 404.824 389.222 416.553 376.258 426.5C362.673 436.924 347.795 446.327 331.758 452.5C312.739 459.821 292.082 462.919 271.758 463C255.246 463.066 239.566 460.759 223.758 456C192.313 446.534 163.117 429.136 141.258 404.5C131.183 393.144 122.013 380.118 115.258 366.5C106.277 348.394 100.261 328.689 98.7583 308.5Z" fill="url(#paint9_linear_185_639)"/>
<path d="M427.758 350.5C427.865 349.967 428.258 348.5 428.258 348C429.258 364.5 398.565 409.384 376.258 426.5C362.673 436.924 347.795 446.327 331.758 452.5C312.739 459.821 292.082 462.919 271.758 463C255.246 463.066 239.566 460.758 223.758 456C192.313 446.534 163.117 429.136 141.258 404.5C124.4 385.5 113.758 369.5 106.258 344.5C130.88 330.431 155.65 319.432 184.758 322.501C195.349 323.617 206.146 326.63 216.258 330C235.594 336.446 253.836 346.398 271.758 356C285.758 363.5 293.258 367.5 308.258 373C325.133 379.188 335.758 382 343.758 382.5C370.575 383.289 387.258 379 411.258 368C417.258 364.5 425.758 360.5 427.758 350.5Z" fill="url(#paint10_linear_185_639)"/>
<path d="M427.258 353.5C427.651 351.849 427.758 351.5 428.258 350C424.945 379.813 398.565 409.383 376.258 426.5C362.673 436.923 347.795 446.326 331.758 452.5C312.739 459.821 292.082 462.919 271.758 462.999C255.246 463.065 239.562 460.77 223.758 456C170.758 440 146.258 411 139.258 402C164.758 389 173.758 384.731 187.758 381.5C225.857 372.708 264.218 398.791 300.758 404.5C343.136 411.122 382.267 399.367 415.258 370.5C419.258 367 424.758 364 427.258 353.5Z" fill="url(#paint11_linear_185_639)"/>
<path d="M178.258 268.5C166.566 265.626 165.258 267 147.758 264C162.758 263.5 162.717 263.283 172.258 264C182.803 264.792 192.693 266.786 202.758 270C218.797 275.121 233.896 282.275 248.258 291C260.133 298.213 271.109 305.845 282.258 314C294.718 323.113 307.334 331.248 321.258 338C328.11 341.323 330.125 342.834 337.258 345.5C350.436 350.426 364.205 354.985 378.258 356.5C396.19 358.433 411.871 355.944 427.758 348C427.258 351.5 426.758 352 425.258 354C419.694 360.949 406.695 363.001 398.258 364C386.963 365.338 375.343 363.665 364.258 361.5C350.782 358.868 337.788 354.596 325.258 349C304.424 339.695 287.909 325.696 269.258 313C255.138 303.388 240.552 294.139 225.258 286.5C210.321 279.039 194.504 272.494 178.258 268.5Z" fill="url(#paint12_linear_185_639)"/>
<path d="M422.258 369C423.258 367.5 424.758 364.5 425.258 363C413.203 403.987 370.643 437.532 331.758 452.5C287.529 469.525 236.299 465.52 194.258 444.5C208.695 433.271 232.049 424.977 250.258 427C278.974 430.191 306.237 434.713 335.258 430.5C367.258 424 394.309 397.206 400.258 392C404.258 388.5 416.271 377.981 422.258 369Z" fill="url(#paint13_linear_185_639)"/>
<defs>
<linearGradient id="paint0_linear_185_639" x1="560.751" y1="321" x2="560.751" y2="643.058" gradientUnits="userSpaceOnUse">
<stop stop-color="#F84535"/>
<stop offset="0.403846" stop-color="#E3A726"/>
<stop offset="0.629808" stop-color="#93CD75"/>
<stop offset="0.894231" stop-color="#18A2D5"/>
</linearGradient>
<linearGradient id="paint1_linear_185_639" x1="560.751" y1="321" x2="560.751" y2="643.058" gradientUnits="userSpaceOnUse">
<stop offset="0.173077" stop-color="#FC5238"/>
<stop offset="0.379808" stop-color="#E28F27"/>
<stop offset="0.576923" stop-color="#59C586"/>
<stop offset="0.894231" stop-color="#0E91D8"/>
</linearGradient>
<linearGradient id="paint2_linear_185_639" x1="585.258" y1="494.5" x2="590.758" y2="627" gradientUnits="userSpaceOnUse">
<stop stop-color="#4CB983"/>
<stop offset="0.576923" stop-color="#1787CE"/>
</linearGradient>
<radialGradient id="paint3_radial_185_639" cx="0" cy="0" r="1" gradientUnits="userSpaceOnUse" gradientTransform="translate(309.757 196) rotate(88.7753) scale(210.548 220.392)">
<stop offset="0.094945" stop-color="#42505B"/>
<stop offset="1" stop-color="#2B363C"/>
</radialGradient>
<linearGradient id="paint4_linear_185_639" x1="129.258" y1="44.5" x2="141.258" y2="358.5" gradientUnits="userSpaceOnUse">
<stop stop-color="#455661"/>
<stop offset="0.649038" stop-color="#1D252B"/>
</linearGradient>
<linearGradient id="paint5_linear_185_639" x1="225.758" y1="67" x2="84.7583" y2="199" gradientUnits="userSpaceOnUse">
<stop stop-color="#1F252B"/>
<stop offset="1" stop-color="#262D36"/>
</linearGradient>
<linearGradient id="paint6_linear_185_639" x1="89.7583" y1="219" x2="256.258" y2="110" gradientUnits="userSpaceOnUse">
<stop stop-color="#2C373D" stop-opacity="0.5"/>
<stop offset="0.538462" stop-color="#43525C"/>
</linearGradient>
<linearGradient id="paint7_linear_185_639" x1="448.54" y1="239" x2="450.258" y2="322" gradientUnits="userSpaceOnUse">
<stop stop-color="#1F272B"/>
<stop offset="1" stop-color="#20292E"/>
</linearGradient>
<radialGradient id="paint8_radial_185_639" cx="0" cy="0" r="1" gradientUnits="userSpaceOnUse" gradientTransform="translate(397.258 112) rotate(62.1696) scale(111.383 112.278)">
<stop stop-color="#3E4D57"/>
<stop offset="0.610577" stop-color="#313C43"/>
</radialGradient>
<linearGradient id="paint9_linear_185_639" x1="159.258" y1="373" x2="396.258" y2="376.5" gradientUnits="userSpaceOnUse">
<stop stop-color="#F34538"/>
<stop offset="0.75" stop-color="#DFCE36"/>
</linearGradient>
<linearGradient id="paint10_linear_185_639" x1="159.258" y1="373" x2="396.258" y2="376.5" gradientUnits="userSpaceOnUse">
<stop offset="0.0673077" stop-color="#F78A26"/>
<stop offset="0.629808" stop-color="#E2CA2A"/>
<stop offset="1" stop-color="#98C74C"/>
</linearGradient>
<linearGradient id="paint11_linear_185_639" x1="159.258" y1="373" x2="396.258" y2="376.5" gradientUnits="userSpaceOnUse">
<stop offset="0.418269" stop-color="#0EACA1"/>
<stop offset="1" stop-color="#5CC270"/>
</linearGradient>
<linearGradient id="paint12_linear_185_639" x1="287.758" y1="263.54" x2="287.758" y2="364.478" gradientUnits="userSpaceOnUse">
<stop stop-color="#FF7229" stop-opacity="0.2"/>
<stop offset="0.288462" stop-color="#FF7229"/>
<stop offset="0.644231" stop-color="#E6CF4C"/>
<stop offset="1" stop-color="#E6CF4C"/>
</linearGradient>
<linearGradient id="paint13_linear_185_639" x1="159.258" y1="373" x2="396.258" y2="376.5" gradientUnits="userSpaceOnUse">
<stop offset="0.418269" stop-color="#138ED8"/>
<stop offset="1" stop-color="#13B196"/>
</linearGradient>
</defs>
</svg>
